TITLE ""
FILE "P1Q_t_1049-1058.mp3" MP3
  TRACK 01 AUDIO
    TITLE "P1Q_t_1049-1058_01"
    INDEX 01 00:00:00
  TRACK 02 AUDIO
    TITLE "P1Q_t_1049-1058_02"
    INDEX 01 00:00:08
  TRACK 03 AUDIO
    TITLE "P1Q_t_1049-1058_03"
    INDEX 01 00:01:49
  TRACK 04 AUDIO
    TITLE "P1Q_t_1049-1058_04"
    INDEX 01 00:01:70
  TRACK 05 AUDIO
    TITLE "P1Q_t_1049-1058_05"
    INDEX 01 00:03:63
  TRACK 06 AUDIO
    TITLE "P1Q_t_1049-1058_06"
    INDEX 01 00:04:06
  TRACK 07 AUDIO
    TITLE "P1Q_t_1049-1058_07"
    INDEX 01 00:09:23
  TRACK 08 AUDIO
    TITLE "P1Q_t_1049-1058_08"
    INDEX 01 00:09:68
  TRACK 09 AUDIO
    TITLE "P1Q_t_1049-1058_09"
    INDEX 01 00:11:10
  TRACK 10 AUDIO
    TITLE "P1Q_t_1049-1058_10"
    INDEX 01 00:11:30
  TRACK 11 AUDIO
    TITLE "P1Q_t_1049-1058_11"
    INDEX 01 00:15:61
  TRACK 12 AUDIO
    TITLE "P1Q_t_1049-1058_12"
    INDEX 01 00:16:05
  TRACK 13 AUDIO
    TITLE "P1Q_t_1049-1058_13"
    INDEX 01 00:19:23
  TRACK 14 AUDIO
    TITLE "P1Q_t_1049-1058_14"
    INDEX 01 00:19:70
  TRACK 15 AUDIO
    TITLE "P1Q_t_1049-1058_15"
    INDEX 01 00:21:26
  TRACK 16 AUDIO
    TITLE "P1Q_t_1049-1058_16"
    INDEX 01 00:21:48
  TRACK 17 AUDIO
    TITLE "P1Q_t_1049-1058_17"
    INDEX 01 00:24:21
  TRACK 18 AUDIO
    TITLE "P1Q_t_1049-1058_18"
    INDEX 01 00:24:40
  TRACK 19 AUDIO
    TITLE "P1Q_t_1049-1058_19"
    INDEX 01 00:29:16
  TRACK 20 AUDIO
    TITLE "P1Q_t_1049-1058_20"
    INDEX 01 00:29:59
  TRACK 21 AUDIO
    TITLE "P1Q_t_1049-1058_21"
    INDEX 01 00:30:72
  TRACK 22 AUDIO
    TITLE "P1Q_t_1049-1058_22"
    INDEX 01 00:31:19
  TRACK 23 AUDIO
    TITLE "P1Q_t_1049-1058_23"
    INDEX 01 00:33:25
  TRACK 24 AUDIO
    TITLE "P1Q_t_1049-1058_24"
    INDEX 01 00:33:45
  TRACK 25 AUDIO
    TITLE "P1Q_t_1049-1058_25"
    INDEX 01 00:37:17
  TRACK 26 AUDIO
    TITLE "P1Q_t_1049-1058_26"
    INDEX 01 00:37:62
  TRACK 27 AUDIO
    TITLE "P1Q_t_1049-1058_27"
    INDEX 01 00:39:10
  TRACK 28 AUDIO
    TITLE "P1Q_t_1049-1058_28"
    INDEX 01 00:39:32
  TRACK 29 AUDIO
    TITLE "P1Q_t_1049-1058_29"
    INDEX 01 00:42:54
  TRACK 30 AUDIO
    TITLE "P1Q_t_1049-1058_30"
    INDEX 01 00:42:73
  TRACK 31 AUDIO
    TITLE "P1Q_t_1049-1058_31"
    INDEX 01 00:47:27
  TRACK 32 AUDIO
    TITLE "P1Q_t_1049-1058_32"
    INDEX 01 00:47:73
  TRACK 33 AUDIO
    TITLE "P1Q_t_1049-1058_33"
    INDEX 01 00:49:21
  TRACK 34 AUDIO
    TITLE "P1Q_t_1049-1058_34"
    INDEX 01 00:49:42
  TRACK 35 AUDIO
    TITLE "P1Q_t_1049-1058_35"
    INDEX 01 00:52:27
  TRACK 36 AUDIO
    TITLE "P1Q_t_1049-1058_36"
    INDEX 01 00:52:46
  TRACK 37 AUDIO
    TITLE "P1Q_t_1049-1058_37"
    INDEX 01 00:55:49
  TRACK 38 AUDIO
    TITLE "P1Q_t_1049-1058_38"
    INDEX 01 00:56:19
  TRACK 39 AUDIO
    TITLE "P1Q_t_1049-1058_39"
    INDEX 01 00:57:32
  TRACK 40 AUDIO
    TITLE "P1Q_t_1049-1058_40"
    INDEX 01 00:57:55
  TRACK 41 AUDIO
    TITLE "P1Q_t_1049-1058_41"
    INDEX 01 01:00:67
  TRACK 42 AUDIO
    TITLE "P1Q_t_1049-1058_42"
    INDEX 01 01:01:12
  TRACK 43 AUDIO
    TITLE "P1Q_t_1049-1058_43"
    INDEX 01 01:05:18
  TRACK 44 AUDIO
    TITLE "P1Q_t_1049-1058_44"
    INDEX 01 01:05:63
  TRACK 45 AUDIO
    TITLE "P1Q_t_1049-1058_45"
    INDEX 01 01:06:72
  TRACK 46 AUDIO
    TITLE "P1Q_t_1049-1058_46"
    INDEX 01 01:07:18
  TRACK 47 AUDIO
    TITLE "P1Q_t_1049-1058_47"
    INDEX 01 01:10:25
  TRACK 48 AUDIO
    TITLE "P1Q_t_1049-1058_48"
    INDEX 01 01:10:44
  TRACK 49 AUDIO
    TITLE "P1Q_t_1049-1058_49"
    INDEX 01 01:14:40
  TRACK 50 AUDIO
    TITLE "P1Q_t_1049-1058_50"
    INDEX 01 01:15:12
  TRACK 51 AUDIO
    TITLE "P1Q_t_1049-1058_51"
    INDEX 01 01:16:21
  TRACK 52 AUDIO
    TITLE "P1Q_t_1049-1058_52"
    INDEX 01 01:16:43
  TRACK 53 AUDIO
    TITLE "P1Q_t_1049-1058_53"
    INDEX 01 01:18:48
  TRACK 54 AUDIO
    TITLE "P1Q_t_1049-1058_54"
    INDEX 01 01:18:65
  TRACK 55 AUDIO
    TITLE "P1Q_t_1049-1058_55"
    INDEX 01 01:23:61
  TRACK 56 AUDIO
    TITLE "P1Q_t_1049-1058_56"
    INDEX 01 01:24:31
  TRACK 57 AUDIO
    TITLE "P1Q_t_1049-1058_57"
    INDEX 01 01:25:42
  TRACK 58 AUDIO
    TITLE "P1Q_t_1049-1058_58"
    INDEX 01 01:25:61
  TRACK 59 AUDIO
    TITLE "P1Q_t_1049-1058_59"
    INDEX 01 01:29:06
  TRACK 60 AUDIO
    TITLE "P1Q_t_1049-1058_60"
    INDEX 01 01:29:26
  TRACK 61 AUDIO
    TITLE "P1Q_t_1049-1058_61"
    INDEX 01 01:33:49
